<svg width="1440" height="1275" viewBox="0 0 1440 1275" fill="none" xmlns="http://www.w3.org/2000/svg">
<path d="M-739.219 262.451C-762.734 196.939 -732.746 99.0919 -424.674 231.803C-39.5847 397.692 -68.9591 401.177 158.143 391.19C385.245 381.203 540.203 418.968 740.484 533.61C940.765 648.253 991.793 695.484 1143.41 694.324C1295.02 693.164 1300.81 632.55 1483.87 713.691" stroke="#F68338" stroke-width="3"/>
<path d="M-228.066 572.442C-251.542 506.942 -221.552 409.096 86.2152 541.707C470.924 707.471 441.574 710.964 668.482 700.914C895.39 690.863 1050.2 728.58 1250.28 843.155C1450.35 957.729 1501.32 1004.94 1652.8 1003.74C1804.29 1002.54 1810.09 941.926 1992.97 1023.01" stroke="#3A3A3A" stroke-width="3"/>
<path d="M-714.482 277.944C-737.894 212.251 -707.786 114.043 -400.053 246.76C-15.3879 412.656 -44.7524 416.193 182.249 405.859C409.25 395.525 564.078 433.197 764.099 547.936C964.12 662.675 1015.06 709.989 1166.59 708.615C1318.13 707.241 1324.01 646.422 1506.86 727.573" stroke="#ED8038" stroke-width="3"/>
<path d="M-689.415 292.494C-712.891 226.994 -682.901 129.148 -375.134 261.759C9.57526 427.523 -19.7747 431.016 207.134 420.966C434.042 410.915 588.855 448.632 788.93 563.206C989.004 677.781 1039.97 724.993 1191.46 723.79C1342.94 722.587 1348.74 661.978 1531.62 743.059" stroke="#E47C38" stroke-width="3"/>
<path d="M-666.714 307.318C-690.165 241.612 -660.058 143.403 -352.021 276.22C33.0254 442.241 3.63647 445.771 230.832 435.5C458.027 425.229 613 462.95 813.227 577.756C1013.45 692.562 1064.45 739.896 1216.12 738.565C1367.78 737.234 1373.65 676.41 1556.68 757.622" stroke="#DB7938" stroke-width="3"/>
<path d="M-641.665 321.861C-665.141 256.361 -635.151 158.515 -327.384 291.126C57.3251 456.89 27.9752 460.383 254.883 450.333C481.792 440.282 636.605 477.999 836.68 592.574C1036.75 707.148 1087.72 754.36 1239.21 753.157C1390.69 751.954 1396.49 691.345 1579.37 772.426" stroke="#D27538" stroke-width="3"/>
<path d="M-616.909 337.36C-640.321 271.667 -610.212 173.459 -302.48 306.176C82.1852 472.072 52.8207 475.609 279.822 465.275C506.824 454.941 661.651 492.613 861.672 607.352C1061.69 722.091 1112.63 769.405 1264.17 768.031C1415.7 766.657 1421.58 705.838 1604.43 786.989" stroke="#C97239" stroke-width="3"/>
<path d="M-593.896 351.234C-617.411 285.722 -587.423 187.875 -279.351 320.586C105.739 486.475 76.3642 489.96 303.466 479.973C530.568 469.986 685.527 507.751 885.807 622.393C1086.09 737.036 1137.12 784.267 1288.73 783.107C1440.34 781.947 1446.13 721.333 1629.19 802.474" stroke="#C06E39" stroke-width="3"/>
<path d="M-568.847 365.778C-592.323 300.278 -562.333 202.432 -254.566 335.043C130.143 500.807 100.793 504.3 327.701 494.249C554.609 484.199 709.422 521.916 909.497 636.49C1109.57 751.065 1160.54 798.277 1312.02 797.074C1463.5 795.871 1469.31 735.262 1652.18 816.343" stroke="#B76B39" stroke-width="3"/>
<path d="M-544.092 381.276C-567.504 315.583 -537.395 217.375 -229.663 350.092C155.002 515.988 125.638 519.525 352.639 509.191C579.641 498.857 734.468 536.529 934.489 651.268C1134.51 766.007 1185.45 813.321 1336.98 811.947C1488.52 810.573 1494.4 749.754 1677.25 830.905" stroke="#AF6739" stroke-width="3"/>
<path d="M-521.078 395.151C-544.593 329.639 -514.605 231.792 -206.533 364.503C178.556 530.392 149.182 533.877 376.284 523.89C603.386 513.903 758.344 551.668 958.625 666.31C1158.91 780.953 1209.93 828.184 1361.55 827.024C1513.16 825.864 1518.95 765.25 1702.01 846.391" stroke="#A66439" stroke-width="3"/>
<path d="M-496.342 410.644C-519.754 344.951 -489.645 246.743 -181.913 379.46C202.753 545.356 173.388 548.893 400.39 538.559C627.391 528.225 782.219 565.897 982.24 680.636C1182.26 795.375 1233.2 842.689 1384.73 841.315C1536.27 839.941 1542.15 779.122 1725 860.273" stroke="#9D6039" stroke-width="3"/>
<path d="M-471.274 425.193C-494.75 359.694 -464.76 261.848 -156.993 394.459C227.716 560.223 198.366 563.716 425.275 553.665C652.183 543.615 806.996 581.331 1007.07 695.906C1207.15 810.481 1258.12 857.693 1409.6 856.49C1561.08 855.287 1566.88 794.677 1749.76 875.758" stroke="#945D39" stroke-width="3"/>
<path d="M-448.573 440.017C-472.024 374.311 -441.917 276.103 -133.88 408.92C251.166 574.941 221.777 578.47 448.973 568.2C676.168 557.929 831.141 595.649 1031.37 710.455C1231.59 825.262 1282.59 872.595 1434.26 871.264C1585.93 869.933 1591.79 809.11 1774.82 890.321" stroke="#8B5A39" stroke-width="3"/>
<path d="M-423.506 454.567C-447.02 389.055 -417.032 291.208 -108.96 423.919C276.129 589.808 246.755 593.293 473.857 583.307C700.959 573.32 855.917 611.084 1056.2 725.726C1256.48 840.369 1307.51 887.6 1459.12 886.44C1610.73 885.28 1616.53 824.666 1799.58 905.807" stroke="#82563A" stroke-width="3"/>
<path d="M-398.456 469.11C-421.932 403.61 -391.942 305.764 -84.175 438.375C300.534 604.139 271.184 607.632 498.092 597.581C725 587.531 879.813 625.248 1079.89 739.822C1279.96 854.397 1330.93 901.609 1482.41 900.406C1633.9 899.203 1639.7 838.594 1822.58 919.675" stroke="#79533A" stroke-width="3"/>
<path d="M-373.701 484.609C-397.113 418.916 -367.005 320.708 -59.2723 453.425C325.393 619.321 296.029 622.858 523.03 612.524C750.031 602.19 904.859 639.862 1104.88 754.601C1304.9 869.34 1355.84 916.654 1507.37 915.28C1658.91 913.906 1664.79 853.087 1847.64 934.238" stroke="#704F3A" stroke-width="3"/>
<path d="M-350.688 498.483C-374.203 432.971 -344.215 335.124 -36.1429 467.835C348.947 633.724 319.572 637.209 546.674 627.222C773.777 617.235 928.735 655 1129.02 769.642C1329.3 884.285 1380.32 931.516 1531.94 930.356C1683.55 929.196 1689.34 868.582 1872.4 949.723" stroke="#674C3A" stroke-width="3"/>
<path d="M-325.951 513.977C-349.363 448.283 -319.254 350.076 -11.5216 482.792C373.144 648.689 343.779 652.226 570.781 641.891C797.782 631.557 952.61 669.23 1152.63 783.968C1352.65 898.707 1403.59 946.022 1555.13 944.647C1706.66 943.273 1712.54 882.454 1895.39 963.606" stroke="#5E483A" stroke-width="3"/>
<path d="M-300.884 528.525C-324.36 463.026 -294.369 365.18 13.3975 497.791C398.106 663.555 368.756 667.048 595.665 656.997C822.573 646.947 977.386 684.663 1177.46 799.238C1377.54 913.813 1428.51 961.025 1579.99 959.822C1731.47 958.619 1737.27 898.009 1920.15 979.09" stroke="#55453A" stroke-width="3"/>
<path d="M-278.182 543.35C-301.634 477.644 -271.527 379.436 36.5103 512.253C421.557 678.274 392.168 681.803 619.363 671.532C846.558 661.262 1001.53 698.982 1201.76 813.788C1401.99 928.595 1452.98 975.928 1604.65 974.597C1756.32 973.266 1762.18 912.443 1945.21 993.654" stroke="#4C413A" stroke-width="3"/>
<path d="M-253.133 557.893C-276.609 492.394 -246.619 394.548 61.148 527.159C445.857 692.922 416.507 696.416 643.415 686.365C870.323 676.315 1025.14 714.031 1225.21 828.606C1425.29 943.181 1476.26 990.393 1627.74 989.19C1779.22 987.987 1785.02 927.377 1967.9 1008.46" stroke="#433E3A" stroke-width="3"/>
</svg>
